<mxfile host="app.diagrams.net" modified="2024-01-29T13:44:26.080Z" agent="Mozilla/5.0 (Windows NT 10.0; Win64; x64) AppleWebKit/537.36 (KHTML, like Gecko) Chrome/120.0.0.0 Safari/537.36" etag="mm_kUQYl3NJuPZYHND86" version="23.0.1" type="device">
  <diagram name="Seite-1" id="RgVdIKdjDXyPKUQFVnuI">
    <mxGraphModel dx="1134" dy="1806" grid="1" gridSize="10" guides="1" tooltips="1" connect="1" arrows="1" fold="1" page="1" pageScale="1" pageWidth="827" pageHeight="1169" math="0" shadow="0">
      <root>
        <mxCell id="0" />
        <mxCell id="1" parent="0" />
        <mxCell id="9SAi8YExB5mZZNQsVsUT-1" value="BoardCards" style="swimlane;fontStyle=1;align=center;verticalAlign=top;childLayout=stackLayout;horizontal=1;startSize=26;horizontalStack=0;resizeParent=1;resizeParentMax=0;resizeLast=0;collapsible=1;marginBottom=0;whiteSpace=wrap;html=1;" vertex="1" parent="1">
          <mxGeometry x="580" y="94" width="160" height="100" as="geometry" />
        </mxCell>
        <mxCell id="9SAi8YExB5mZZNQsVsUT-2" value="boardcards" style="text;strokeColor=none;fillColor=none;align=left;verticalAlign=top;spacingLeft=4;spacingRight=4;overflow=hidden;rotatable=0;points=[[0,0.5],[1,0.5]];portConstraint=eastwest;whiteSpace=wrap;html=1;" vertex="1" parent="9SAi8YExB5mZZNQsVsUT-1">
          <mxGeometry y="26" width="160" height="26" as="geometry" />
        </mxCell>
        <mxCell id="9SAi8YExB5mZZNQsVsUT-3" value="" style="line;strokeWidth=1;fillColor=none;align=left;verticalAlign=middle;spacingTop=-1;spacingLeft=3;spacingRight=3;rotatable=0;labelPosition=right;points=[];portConstraint=eastwest;strokeColor=inherit;" vertex="1" parent="9SAi8YExB5mZZNQsVsUT-1">
          <mxGeometry y="52" width="160" height="8" as="geometry" />
        </mxCell>
        <mxCell id="9SAi8YExB5mZZNQsVsUT-4" value="BoardCards(cards)&lt;br&gt;addCard(card)" style="text;strokeColor=none;fillColor=none;align=left;verticalAlign=top;spacingLeft=4;spacingRight=4;overflow=hidden;rotatable=0;points=[[0,0.5],[1,0.5]];portConstraint=eastwest;whiteSpace=wrap;html=1;" vertex="1" parent="9SAi8YExB5mZZNQsVsUT-1">
          <mxGeometry y="60" width="160" height="40" as="geometry" />
        </mxCell>
        <mxCell id="9SAi8YExB5mZZNQsVsUT-5" value="Card" style="swimlane;fontStyle=1;align=center;verticalAlign=top;childLayout=stackLayout;horizontal=1;startSize=26;horizontalStack=0;resizeParent=1;resizeParentMax=0;resizeLast=0;collapsible=1;marginBottom=0;whiteSpace=wrap;html=1;" vertex="1" parent="1">
          <mxGeometry x="300" y="-4" width="160" height="94" as="geometry" />
        </mxCell>
        <mxCell id="9SAi8YExB5mZZNQsVsUT-6" value="colour&lt;br&gt;value" style="text;strokeColor=none;fillColor=none;align=left;verticalAlign=top;spacingLeft=4;spacingRight=4;overflow=hidden;rotatable=0;points=[[0,0.5],[1,0.5]];portConstraint=eastwest;whiteSpace=wrap;html=1;" vertex="1" parent="9SAi8YExB5mZZNQsVsUT-5">
          <mxGeometry y="26" width="160" height="34" as="geometry" />
        </mxCell>
        <mxCell id="9SAi8YExB5mZZNQsVsUT-7" value="" style="line;strokeWidth=1;fillColor=none;align=left;verticalAlign=middle;spacingTop=-1;spacingLeft=3;spacingRight=3;rotatable=0;labelPosition=right;points=[];portConstraint=eastwest;strokeColor=inherit;" vertex="1" parent="9SAi8YExB5mZZNQsVsUT-5">
          <mxGeometry y="60" width="160" height="8" as="geometry" />
        </mxCell>
        <mxCell id="9SAi8YExB5mZZNQsVsUT-8" value="Card(colour, value)" style="text;strokeColor=none;fillColor=none;align=left;verticalAlign=top;spacingLeft=4;spacingRight=4;overflow=hidden;rotatable=0;points=[[0,0.5],[1,0.5]];portConstraint=eastwest;whiteSpace=wrap;html=1;" vertex="1" parent="9SAi8YExB5mZZNQsVsUT-5">
          <mxGeometry y="68" width="160" height="26" as="geometry" />
        </mxCell>
        <mxCell id="9SAi8YExB5mZZNQsVsUT-38" style="rounded=0;orthogonalLoop=1;jettySize=auto;html=1;exitX=1;exitY=0;exitDx=0;exitDy=0;endArrow=none;endFill=0;" edge="1" parent="1" source="9SAi8YExB5mZZNQsVsUT-9" target="9SAi8YExB5mZZNQsVsUT-5">
          <mxGeometry relative="1" as="geometry" />
        </mxCell>
        <mxCell id="9SAi8YExB5mZZNQsVsUT-9" value="Hand" style="swimlane;fontStyle=1;align=center;verticalAlign=top;childLayout=stackLayout;horizontal=1;startSize=26;horizontalStack=0;resizeParent=1;resizeParentMax=0;resizeLast=0;collapsible=1;marginBottom=0;whiteSpace=wrap;html=1;" vertex="1" parent="1">
          <mxGeometry x="80" y="120" width="160" height="86" as="geometry" />
        </mxCell>
        <mxCell id="9SAi8YExB5mZZNQsVsUT-10" value="cards" style="text;strokeColor=none;fillColor=none;align=left;verticalAlign=top;spacingLeft=4;spacingRight=4;overflow=hidden;rotatable=0;points=[[0,0.5],[1,0.5]];portConstraint=eastwest;whiteSpace=wrap;html=1;" vertex="1" parent="9SAi8YExB5mZZNQsVsUT-9">
          <mxGeometry y="26" width="160" height="26" as="geometry" />
        </mxCell>
        <mxCell id="9SAi8YExB5mZZNQsVsUT-11" value="" style="line;strokeWidth=1;fillColor=none;align=left;verticalAlign=middle;spacingTop=-1;spacingLeft=3;spacingRight=3;rotatable=0;labelPosition=right;points=[];portConstraint=eastwest;strokeColor=inherit;" vertex="1" parent="9SAi8YExB5mZZNQsVsUT-9">
          <mxGeometry y="52" width="160" height="8" as="geometry" />
        </mxCell>
        <mxCell id="9SAi8YExB5mZZNQsVsUT-12" value="Hand(cards)" style="text;strokeColor=none;fillColor=none;align=left;verticalAlign=top;spacingLeft=4;spacingRight=4;overflow=hidden;rotatable=0;points=[[0,0.5],[1,0.5]];portConstraint=eastwest;whiteSpace=wrap;html=1;" vertex="1" parent="9SAi8YExB5mZZNQsVsUT-9">
          <mxGeometry y="60" width="160" height="26" as="geometry" />
        </mxCell>
        <mxCell id="9SAi8YExB5mZZNQsVsUT-41" style="rounded=0;orthogonalLoop=1;jettySize=auto;html=1;exitX=0.5;exitY=0;exitDx=0;exitDy=0;endArrow=none;endFill=0;" edge="1" parent="1" source="9SAi8YExB5mZZNQsVsUT-13" target="9SAi8YExB5mZZNQsVsUT-9">
          <mxGeometry relative="1" as="geometry" />
        </mxCell>
        <mxCell id="9SAi8YExB5mZZNQsVsUT-13" value="Player" style="swimlane;fontStyle=1;align=center;verticalAlign=top;childLayout=stackLayout;horizontal=1;startSize=26;horizontalStack=0;resizeParent=1;resizeParentMax=0;resizeLast=0;collapsible=1;marginBottom=0;whiteSpace=wrap;html=1;" vertex="1" parent="1">
          <mxGeometry x="170" y="280" width="160" height="190" as="geometry" />
        </mxCell>
        <mxCell id="9SAi8YExB5mZZNQsVsUT-14" value="hand&lt;br&gt;chips&lt;br&gt;name" style="text;strokeColor=none;fillColor=none;align=left;verticalAlign=top;spacingLeft=4;spacingRight=4;overflow=hidden;rotatable=0;points=[[0,0.5],[1,0.5]];portConstraint=eastwest;whiteSpace=wrap;html=1;" vertex="1" parent="9SAi8YExB5mZZNQsVsUT-13">
          <mxGeometry y="26" width="160" height="64" as="geometry" />
        </mxCell>
        <mxCell id="9SAi8YExB5mZZNQsVsUT-15" value="" style="line;strokeWidth=1;fillColor=none;align=left;verticalAlign=middle;spacingTop=-1;spacingLeft=3;spacingRight=3;rotatable=0;labelPosition=right;points=[];portConstraint=eastwest;strokeColor=inherit;" vertex="1" parent="9SAi8YExB5mZZNQsVsUT-13">
          <mxGeometry y="90" width="160" height="8" as="geometry" />
        </mxCell>
        <mxCell id="9SAi8YExB5mZZNQsVsUT-16" value="Player(name, buyIn)&lt;br&gt;fold()&lt;br&gt;raise()&lt;br&gt;check()&lt;br&gt;showCards()" style="text;strokeColor=none;fillColor=none;align=left;verticalAlign=top;spacingLeft=4;spacingRight=4;overflow=hidden;rotatable=0;points=[[0,0.5],[1,0.5]];portConstraint=eastwest;whiteSpace=wrap;html=1;" vertex="1" parent="9SAi8YExB5mZZNQsVsUT-13">
          <mxGeometry y="98" width="160" height="92" as="geometry" />
        </mxCell>
        <mxCell id="9SAi8YExB5mZZNQsVsUT-34" style="rounded=0;orthogonalLoop=1;jettySize=auto;html=1;exitX=0;exitY=0;exitDx=0;exitDy=0;entryX=1;entryY=0.5;entryDx=0;entryDy=0;endArrow=none;endFill=0;" edge="1" parent="1" source="9SAi8YExB5mZZNQsVsUT-17" target="9SAi8YExB5mZZNQsVsUT-8">
          <mxGeometry relative="1" as="geometry" />
        </mxCell>
        <mxCell id="9SAi8YExB5mZZNQsVsUT-17" value="Game" style="swimlane;fontStyle=1;align=center;verticalAlign=top;childLayout=stackLayout;horizontal=1;startSize=26;horizontalStack=0;resizeParent=1;resizeParentMax=0;resizeLast=0;collapsible=1;marginBottom=0;whiteSpace=wrap;html=1;" vertex="1" parent="1">
          <mxGeometry x="580" y="260" width="160" height="230" as="geometry" />
        </mxCell>
        <mxCell id="9SAi8YExB5mZZNQsVsUT-18" value="boardCards&lt;br&gt;players&lt;br&gt;smallBlind&lt;br&gt;bigBlind&lt;br&gt;cards" style="text;strokeColor=none;fillColor=none;align=left;verticalAlign=top;spacingLeft=4;spacingRight=4;overflow=hidden;rotatable=0;points=[[0,0.5],[1,0.5]];portConstraint=eastwest;whiteSpace=wrap;html=1;" vertex="1" parent="9SAi8YExB5mZZNQsVsUT-17">
          <mxGeometry y="26" width="160" height="94" as="geometry" />
        </mxCell>
        <mxCell id="9SAi8YExB5mZZNQsVsUT-19" value="" style="line;strokeWidth=1;fillColor=none;align=left;verticalAlign=middle;spacingTop=-1;spacingLeft=3;spacingRight=3;rotatable=0;labelPosition=right;points=[];portConstraint=eastwest;strokeColor=inherit;" vertex="1" parent="9SAi8YExB5mZZNQsVsUT-17">
          <mxGeometry y="120" width="160" height="8" as="geometry" />
        </mxCell>
        <mxCell id="9SAi8YExB5mZZNQsVsUT-20" value="Game(players)&lt;br&gt;calculateWinner()&lt;br&gt;playerOut()&lt;br&gt;raiseBlinds()" style="text;strokeColor=none;fillColor=none;align=left;verticalAlign=top;spacingLeft=4;spacingRight=4;overflow=hidden;rotatable=0;points=[[0,0.5],[1,0.5]];portConstraint=eastwest;whiteSpace=wrap;html=1;" vertex="1" parent="9SAi8YExB5mZZNQsVsUT-17">
          <mxGeometry y="128" width="160" height="102" as="geometry" />
        </mxCell>
        <mxCell id="9SAi8YExB5mZZNQsVsUT-25" style="rounded=0;orthogonalLoop=1;jettySize=auto;html=1;exitX=1;exitY=0.5;exitDx=0;exitDy=0;entryX=0;entryY=0.5;entryDx=0;entryDy=0;endArrow=none;endFill=0;" edge="1" parent="1" source="9SAi8YExB5mZZNQsVsUT-14" target="9SAi8YExB5mZZNQsVsUT-18">
          <mxGeometry relative="1" as="geometry" />
        </mxCell>
        <mxCell id="9SAi8YExB5mZZNQsVsUT-26" value="6" style="text;html=1;align=center;verticalAlign=middle;resizable=0;points=[];autosize=1;strokeColor=none;fillColor=none;" vertex="1" parent="1">
          <mxGeometry x="325" y="318" width="30" height="30" as="geometry" />
        </mxCell>
        <mxCell id="9SAi8YExB5mZZNQsVsUT-27" style="rounded=0;orthogonalLoop=1;jettySize=auto;html=1;exitX=1;exitY=0.5;exitDx=0;exitDy=0;entryX=0.25;entryY=0;entryDx=0;entryDy=0;endArrow=none;endFill=0;" edge="1" parent="1" source="9SAi8YExB5mZZNQsVsUT-6" target="9SAi8YExB5mZZNQsVsUT-1">
          <mxGeometry relative="1" as="geometry" />
        </mxCell>
        <mxCell id="9SAi8YExB5mZZNQsVsUT-28" value="&amp;lt;consists" style="text;html=1;align=center;verticalAlign=middle;resizable=0;points=[];autosize=1;strokeColor=none;fillColor=none;rotation=15;" vertex="1" parent="1">
          <mxGeometry x="515" y="38" width="70" height="30" as="geometry" />
        </mxCell>
        <mxCell id="9SAi8YExB5mZZNQsVsUT-29" value="3...5" style="text;html=1;align=center;verticalAlign=middle;resizable=0;points=[];autosize=1;strokeColor=none;fillColor=none;" vertex="1" parent="1">
          <mxGeometry x="460" y="10" width="50" height="30" as="geometry" />
        </mxCell>
        <mxCell id="9SAi8YExB5mZZNQsVsUT-30" value="1" style="text;html=1;align=center;verticalAlign=middle;resizable=0;points=[];autosize=1;strokeColor=none;fillColor=none;" vertex="1" parent="1">
          <mxGeometry x="625" y="68" width="30" height="30" as="geometry" />
        </mxCell>
        <mxCell id="9SAi8YExB5mZZNQsVsUT-31" style="rounded=0;orthogonalLoop=1;jettySize=auto;html=1;exitX=0.5;exitY=0;exitDx=0;exitDy=0;entryX=0.496;entryY=1.025;entryDx=0;entryDy=0;entryPerimeter=0;endArrow=none;endFill=0;" edge="1" parent="1" source="9SAi8YExB5mZZNQsVsUT-17" target="9SAi8YExB5mZZNQsVsUT-4">
          <mxGeometry relative="1" as="geometry" />
        </mxCell>
        <mxCell id="9SAi8YExB5mZZNQsVsUT-32" value="1" style="text;html=1;align=center;verticalAlign=middle;resizable=0;points=[];autosize=1;strokeColor=none;fillColor=none;" vertex="1" parent="1">
          <mxGeometry x="665" y="188" width="30" height="30" as="geometry" />
        </mxCell>
        <mxCell id="9SAi8YExB5mZZNQsVsUT-33" value="1" style="text;html=1;align=center;verticalAlign=middle;resizable=0;points=[];autosize=1;strokeColor=none;fillColor=none;" vertex="1" parent="1">
          <mxGeometry x="665" y="228" width="30" height="30" as="geometry" />
        </mxCell>
        <mxCell id="9SAi8YExB5mZZNQsVsUT-35" value="1" style="text;html=1;align=center;verticalAlign=middle;resizable=0;points=[];autosize=1;strokeColor=none;fillColor=none;" vertex="1" parent="1">
          <mxGeometry x="575" y="228" width="30" height="30" as="geometry" />
        </mxCell>
        <mxCell id="9SAi8YExB5mZZNQsVsUT-36" value="52" style="text;html=1;align=center;verticalAlign=middle;resizable=0;points=[];autosize=1;strokeColor=none;fillColor=none;" vertex="1" parent="1">
          <mxGeometry x="450" y="58" width="40" height="30" as="geometry" />
        </mxCell>
        <mxCell id="9SAi8YExB5mZZNQsVsUT-37" value="*" style="text;html=1;align=center;verticalAlign=middle;resizable=0;points=[];autosize=1;strokeColor=none;fillColor=none;" vertex="1" parent="1">
          <mxGeometry x="555" y="298" width="30" height="30" as="geometry" />
        </mxCell>
        <mxCell id="9SAi8YExB5mZZNQsVsUT-39" value="2" style="text;html=1;align=center;verticalAlign=middle;resizable=0;points=[];autosize=1;strokeColor=none;fillColor=none;" vertex="1" parent="1">
          <mxGeometry x="290" y="88" width="30" height="30" as="geometry" />
        </mxCell>
        <mxCell id="9SAi8YExB5mZZNQsVsUT-40" value="1" style="text;html=1;align=center;verticalAlign=middle;resizable=0;points=[];autosize=1;strokeColor=none;fillColor=none;" vertex="1" parent="1">
          <mxGeometry x="235" y="118" width="30" height="30" as="geometry" />
        </mxCell>
        <mxCell id="9SAi8YExB5mZZNQsVsUT-42" value="1" style="text;html=1;align=center;verticalAlign=middle;resizable=0;points=[];autosize=1;strokeColor=none;fillColor=none;" vertex="1" parent="1">
          <mxGeometry x="245" y="248" width="30" height="30" as="geometry" />
        </mxCell>
        <mxCell id="9SAi8YExB5mZZNQsVsUT-43" value="1" style="text;html=1;align=center;verticalAlign=middle;resizable=0;points=[];autosize=1;strokeColor=none;fillColor=none;" vertex="1" parent="1">
          <mxGeometry x="215" y="208" width="30" height="30" as="geometry" />
        </mxCell>
      </root>
    </mxGraphModel>
  </diagram>
</mxfile>
